<?xml version="1.0" encoding="UTF-8"?><svg id="a" xmlns="http://www.w3.org/2000/svg" viewBox="0 0 86.61 47.07"><defs><style>.b{fill:#fff;}</style></defs><path class="b" d="M34.99,4.98c-.46-.23-.91-.46-1.37-.7-2.82-1.48-5.85-2.11-8.99-1.95-3.96,.19-7.52,1.55-10.62,4.06-1.67,1.35-3.06,2.94-4.14,4.77-1.49,2.52-2.33,5.26-2.51,8.2-.19,3.08,.37,6.02,1.65,8.79,1.41,3.04,3.52,5.51,6.31,7.38,2.01,1.35,4.18,2.32,6.57,2.75,2.04,.37,4.08,.45,6.15,.16,2.93-.42,5.58-1.51,8-3.2,1.27-.88,2.35-1.97,3.37-3.13,.19-.22,.14-.34-.07-.49-1.29-.96-2.57-1.92-3.86-2.89-.07-.05-.14-.12-.27-.24,6.15-2.78,12.24-5.53,18.46-8.34-.19,1.28-.36,2.44-.53,3.59-.24,1.67-.47,3.34-.7,5.01-.42,3.06-.84,6.12-1.27,9.18-.08,.56-.18,1.11-.26,1.66-.09,.6-.11,.61-.61,.24-1.11-.83-2.23-1.65-3.31-2.52-.42-.33-.64-.43-1.04,.07-2.38,2.93-5.29,5.23-8.68,6.9-4.04,2-8.33,2.91-12.83,2.75-4.13-.15-8.03-1.21-11.66-3.18-3.49-1.89-6.4-4.48-8.75-7.67-1.63-2.2-2.78-4.66-3.43-7.33-.99-4.1-.78-8.16,.56-12.14C2.83,11.84,5.68,7.75,9.73,4.53,13.9,1.22,18.66-.21,23.95,.36c3.22,.35,6.21,1.48,9,3.11,.72,.42,1.46,.85,2.04,1.51Z"/><path class="b" d="M52.22,42.57c.43-.09,.7,.2,1,.34,5.48,2.56,10.97,2.54,16.32-.23,5.55-2.87,8.84-7.55,9.62-13.73,.85-6.76-1.5-12.39-6.8-16.7-2.44-1.98-5.27-3.18-8.39-3.65-3.03-.46-5.99-.18-8.87,.84-3.14,1.1-5.76,2.97-7.92,5.51-.27,.31-.04,.41,.15,.55,1.29,.96,2.58,1.93,3.87,2.9,.04,.03,.07,.08,.15,.17-6.09,2.75-12.16,5.49-18.34,8.28,.14-1.05,.25-2,.39-2.95,.37-2.63,.75-5.27,1.13-7.9,.4-2.76,.79-5.53,1.2-8.29,.12-.79,.15-.8,.78-.33,1.16,.85,2.32,1.71,3.47,2.59,.24,.19,.34,.15,.53-.07,2.9-3.59,6.49-6.26,10.76-7.98C55.26,.3,59.41-.27,63.69,.12c3.57,.32,6.94,1.33,10.07,3.04,4.44,2.43,8.02,5.77,10.43,10.26,1.99,3.71,2.72,7.7,2.3,11.91-.43,4.37-2.04,8.28-4.56,11.83-1.35,1.9-2.91,3.63-4.73,5.09-2.92,2.34-6.18,3.88-9.92,4.36-4.31,.55-8.33-.39-12.16-2.31-1-.5-1.95-1.08-2.91-1.74Z"/><g><path class="b" d="M62.46,19.86c.21,1.63,.42,3.25,.63,4.88,.06,.43,.02,.71-.52,.49-.09-.04-.22-.05-.3-.01-.8,.36-.81-.16-.88-.72-.38-3.04-.78-6.07-1.17-9.1-.1-.76,.13-1.2,.67-1.26,.53-.06,.86,.31,.96,1.08,.2,1.55,.4,3.09,.6,4.64h0Z"/><path class="b" d="M68.9,30.71l-.14-.05c-.41-.25-.84-.45-1.3-.58h0c-1.06-.48-2.12-.98-3.19-1.45-.33-.15-.54-.28-.21-.63,.1-.11,.2-.28,.21-.43,.05-.74,.42-.56,.87-.35,1.25,.56,2.51,1.1,3.77,1.64,.02,.02,.05,.03,.08,.03l.17,.08,1.45,.71c.16,.41,.29,.82-.11,1.17-.38,.33-.78,.21-1.18,.01-.09-.04-.19-.06-.28-.09h-.03c-.01-.05-.04-.07-.08-.06Z"/><path class="b" d="M62.74,28.42c-.81,.11-1.49-.4-1.61-1.2-.12-.82,.4-1.53,1.21-1.64,.78-.11,1.55,.48,1.64,1.25,.09,.79-.46,1.49-1.25,1.59Z"/></g><path class="b" d="M24.12,15.32l-4.64,3.34c.21,.53,.31,1.06,.22,1.6-.05,.27-.13,.54-.21,.81-.03,.11-.03,.15,.07,.21,1.47,.95,2.93,1.9,4.39,2.86,.11,.07,.17,.03,.25-.03,1.85-1.36,4.42-.44,4.98,1.78,.51,2.03-1.1,4.02-3.19,3.94-2.06-.08-3.49-2-2.97-4,.03-.12,.01-.17-.08-.23-1.52-.99-3.03-1.97-4.54-2.97-.1-.07-.17-.06-.28,0-1.99,1.13-4.47-.14-4.73-2.4-.22-1.92,1.34-3.6,3.27-3.53,.57,.02,1.09,.17,1.57,.48,.1,.07,.17,.07,.27,0,1.48-1.07,2.97-2.13,4.46-3.19,.13-.09,.15-.16,.1-.32-.55-1.75,.65-3.68,2.46-3.99,1.79-.3,3.4,.83,3.72,2.62,.35,1.95-1.3,3.8-3.28,3.69-.68-.04-1.28-.27-1.83-.66Z"/></svg>